<svg xmlns="http://www.w3.org/2000/svg" width="361" height="361" viewBox="0 0 361 361">
<g>
<path d="M 275.73,343.40 C275.33,343.00 275.00,341.82 275.00,340.78 C275.00,339.58 273.75,338.38 271.54,337.45 C269.63,336.65 267.59,335.10 267.00,334.00 C265.43,331.06 263.19,331.56 260.95,335.35 C259.71,337.45 257.49,339.29 254.99,340.27 C251.02,341.83 251.00,341.83 251.00,339.47 C251.00,337.94 252.24,336.16 254.50,334.43 C258.58,331.32 259.20,328.00 255.70,328.00 C254.44,328.00 252.87,328.53 252.22,329.18 C250.48,330.92 249.38,329.23 250.78,326.97 C251.87,325.23 251.33,324.60 245.25,320.59 C241.54,318.14 237.18,314.76 235.56,313.07 C233.45,310.86 231.70,310.00 229.34,310.00 C225.02,310.00 223.44,307.52 220.64,296.31 C218.07,286.00 216.28,284.71 211.89,289.97 C210.26,291.91 208.96,292.74 208.55,292.08 C207.48,290.36 205.19,290.83 204.53,292.91 C204.20,293.96 203.23,295.08 202.38,295.41 C201.13,295.89 200.96,295.44 201.50,293.00 C201.86,291.35 201.90,290.00 201.58,290.00 C201.26,290.00 199.09,291.80 196.76,294.00 C191.68,298.78 190.62,298.98 191.50,295.02 L 192.15,292.04 L 188.61,293.52 C183.53,295.64 179.93,295.44 179.29,293.00 C179.00,291.90 178.35,291.00 177.83,291.00 C175.82,291.00 165.28,297.31 150.80,307.18 C140.80,313.99 137.04,314.86 132.91,311.34 C131.55,310.18 129.87,310.67 120.91,314.85 C115.19,317.53 109.44,319.97 108.15,320.29 C105.23,321.00 103.00,320.21 103.00,318.45 C103.00,315.98 101.41,316.10 95.20,319.06 C86.21,323.34 81.24,322.61 82.65,317.22 C83.21,315.10 83.00,315.05 74.86,315.27 C63.99,315.57 63.69,313.88 73.74,308.93 C77.72,306.97 81.32,305.01 81.74,304.58 C82.64,303.66 67.06,304.71 58.62,306.14 C51.19,307.40 49.93,306.46 52.32,301.46 C53.25,299.50 55.36,297.13 57.00,296.20 C58.89,295.12 59.99,293.69 59.99,292.30 C60.00,289.80 63.11,288.07 72.25,285.48 C78.20,283.80 79.88,282.00 75.50,282.00 C74.09,282.00 73.00,281.42 73.00,280.68 C73.00,278.83 81.06,275.00 84.96,275.00 C87.24,275.00 89.00,274.15 90.91,272.10 C95.40,267.29 99.45,266.55 121.18,266.52 L 140.85,266.49 L 145.18,263.41 C155.86,255.78 167.60,244.22 170.85,238.13 C172.65,234.76 173.88,232.00 173.59,232.00 C173.30,232.00 171.30,232.92 169.14,234.05 C164.73,236.34 161.18,235.97 158.42,232.91 C155.98,230.22 154.49,230.48 147.05,234.90 C143.44,237.04 138.76,239.07 136.65,239.41 C133.38,239.93 132.74,239.73 132.29,238.02 C131.84,236.29 131.19,236.09 127.64,236.59 C125.36,236.91 122.91,237.35 122.19,237.57 C121.47,237.80 119.90,236.92 118.69,235.63 C117.08,233.90 115.97,233.49 114.50,234.07 C110.61,235.60 106.31,235.10 104.87,232.93 C103.69,231.15 103.10,231.01 100.66,231.94 C97.31,233.21 96.00,232.62 96.00,229.83 C96.00,228.10 95.58,227.89 93.27,228.47 C91.78,228.84 88.09,229.61 85.08,230.16 C80.23,231.06 79.45,230.97 78.26,229.35 C77.18,227.86 75.77,227.57 70.71,227.77 C63.98,228.05 60.26,226.37 61.35,223.54 C61.98,221.90 63.78,221.02 70.80,218.93 C73.17,218.22 75.87,217.04 76.80,216.31 C78.32,215.11 78.24,215.02 76.00,215.48 C73.83,215.93 65.23,214.81 53.00,212.49 C48.44,211.62 43.00,207.46 43.00,204.84 C43.00,203.29 43.43,202.95 44.75,203.48 C49.37,205.31 60.33,206.97 67.88,206.98 C76.86,207.00 89.00,205.19 89.00,203.83 C89.00,203.37 86.41,202.99 83.25,202.99 C73.31,202.97 64.11,199.54 54.25,192.19 C50.87,189.67 50.28,188.12 52.03,186.37 C53.52,184.88 67.36,188.83 73.50,192.51 C78.22,195.33 79.05,195.49 88.23,195.33 C99.56,195.12 109.29,193.39 108.73,191.67 C108.49,190.97 104.85,190.23 99.68,189.83 C86.86,188.85 76.03,184.56 70.97,178.47 C69.74,176.98 69.84,176.55 71.84,174.93 C74.38,172.87 76.06,173.22 84.00,177.45 C88.97,180.10 103.03,184.30 103.93,183.40 C104.24,183.09 103.76,182.30 102.85,181.63 C101.95,180.97 100.52,178.79 99.68,176.78 C98.79,174.64 96.89,172.48 95.08,171.54 C92.57,170.24 92.00,169.33 92.00,166.59 C92.00,164.11 91.35,162.80 89.50,161.59 C87.87,160.52 86.99,159.01 86.96,157.23 C86.94,155.11 85.94,153.87 82.46,151.67 C78.38,149.08 78.00,148.50 78.00,144.79 C78.00,141.57 77.29,139.95 74.52,136.89 C71.50,133.55 71.17,132.69 72.02,130.45 C73.51,126.52 73.43,126.39 66.92,122.37 L 60.83,118.61 L 61.45,114.50 C62.06,110.43 62.00,110.34 57.03,107.12 C51.84,103.76 50.76,101.27 53.50,99.00 C55.06,97.71 55.56,95.01 54.25,94.99 C53.84,94.98 51.70,93.45 49.50,91.59 C45.65,88.33 45.57,88.14 47.25,86.27 C49.63,83.64 49.50,83.23 45.72,81.66 C38.23,78.53 32.33,69.96 36.55,68.34 C37.40,68.01 48.54,69.19 61.30,70.96 C82.59,73.91 89.18,75.08 93.81,76.70 C94.98,77.11 95.19,76.97 94.50,76.23 C93.58,75.26 82.31,71.05 70.83,67.39 C64.25,65.29 51.22,56.31 47.30,51.17 C43.70,46.45 43.21,43.93 45.45,41.69 C46.73,40.42 48.20,40.60 57.20,43.12 C62.87,44.71 68.12,45.90 68.87,45.76 C69.62,45.62 68.13,43.99 65.56,42.14 C60.39,38.43 52.72,29.35 53.29,27.61 C54.40,24.22 68.78,28.20 91.10,38.10 C97.37,40.88 103.13,43.42 103.91,43.74 C104.68,44.07 103.50,41.90 101.28,38.92 C97.20,33.44 94.59,26.93 93.42,19.35 C92.89,15.91 93.10,15.03 94.64,14.23 C95.66,13.70 97.17,13.50 98.00,13.78 C99.74,14.38 112.92,25.08 121.23,32.64 C124.38,35.50 127.94,38.16 129.15,38.55 C131.35,39.25 135.98,42.18 147.99,50.50 C151.55,52.98 155.04,55.00 155.74,55.00 C156.43,55.00 157.00,53.82 157.00,52.37 C157.00,49.83 157.15,49.76 161.95,50.22 C175.39,51.51 195.86,73.09 202.56,93.03 C204.40,98.52 207.45,105.60 209.33,108.76 C211.21,111.92 214.36,117.20 216.34,120.50 C219.93,126.49 232.76,141.77 234.33,141.92 C234.78,141.96 237.71,139.80 240.83,137.11 C248.69,130.32 263.01,121.00 265.57,121.00 C266.73,121.00 268.50,120.10 269.50,119.00 C270.50,117.90 272.37,117.00 273.67,117.00 C276.71,117.00 287.60,120.83 296.27,124.95 C302.66,127.99 303.19,128.50 305.88,134.33 C307.45,137.72 309.04,141.85 309.42,143.50 C309.84,145.31 312.58,148.88 316.34,152.50 C322.57,158.50 330.66,171.12 329.49,173.01 C328.67,174.35 325.53,173.47 312.50,168.27 C299.98,163.28 294.78,162.74 289.65,165.91 C282.82,170.13 274.40,186.78 272.05,200.70 C270.56,209.56 266.06,221.84 262.31,227.32 C260.76,229.58 255.36,235.64 250.30,240.81 C242.28,248.98 241.01,250.75 240.44,254.56 C239.72,259.36 240.17,264.13 241.99,271.00 C243.68,277.37 242.06,293.56 238.91,301.74 C237.84,304.53 239.32,305.37 255.08,310.85 C261.36,313.03 268.17,315.54 270.22,316.41 C272.26,317.28 275.24,318.00 276.84,318.00 C281.38,318.00 289.19,321.82 288.75,323.82 C288.55,324.75 287.75,325.36 286.98,325.18 C286.20,325.00 284.06,325.14 282.21,325.49 C279.43,326.01 279.06,326.37 280.05,327.56 C280.71,328.35 282.27,329.00 283.52,329.00 C285.84,329.00 287.00,330.69 287.00,334.08 C287.00,336.49 286.57,336.48 283.15,333.96 C279.80,331.48 277.12,332.17 277.73,335.35 C278.27,338.17 276.73,344.39 275.73,343.40 M 274.00,331.00 C274.00,330.45 273.32,330.00 272.50,330.00 C271.68,330.00 271.00,330.45 271.00,331.00 C271.00,331.55 271.68,332.00 272.50,332.00 C273.32,332.00 274.00,331.55 274.00,331.00 M 277.76,325.77 C277.32,324.45 268.65,321.01 265.75,321.00 C264.73,321.00 264.00,321.75 264.00,322.81 C264.00,324.10 265.20,324.91 268.25,325.66 C274.48,327.19 278.24,327.23 277.76,325.77 M 259.00,319.20 C259.00,317.48 256.46,316.00 253.55,316.02 L 250.50,316.04 L 253.00,318.00 C255.53,319.98 259.00,320.67 259.00,319.20 Z" fill="rgba(0,0,0,1)"/>
</g>
</svg>